# xmcd
#
# Track frame offsets:
#	150
#	15887
#	33092
#	52837
#	81210
#	96812
#	115385
#	129835
#	155477
#	172577
#	191815
#	207435
#	221359
#	237202
#	264060
#	279552
#
# Disc length: 4181 seconds
#
# Revision: 1
# Processed by: cddbd v1.5.2PL0 Copyright (c) Steve Scherf et al.
# Submitted via: audiograbber 1.83.01
#
DISCID=c1105310
DTITLE=Vários - Canto e Encanto Nativo - Vol. 10
DYEAR=2000
DGENRE=Gaúcha
TTITLE0=Cesar Passarinho - Seu Honeyde
TTITLE1=Os Serranos - Cambichos
TTITLE2=Os Tiranos - São Francisco é terra boa
TTITLE3=Pedro Ortaça - A volta do sorro manso
TTITLE4=Os Monarcas - Campeiro do Rio Grande
TTITLE5=César Oliveira - À uma tropilha "Veiaca"
TTITLE6=Tchê Barbaridade - Majestade do Pampa
TTITLE7=Xirú Missioneiro - Por um pedaço de terra
TTITLE8=Chiquito e Bordoneio - Milonga pra saudade
TTITLE9=Cristiano Quevedo - Madrugadas gavionas
TTITLE10=Régis Marques e Grupo Rodeio - O sonho acabou
TTITLE11=Fogo de Chão - Velha tropeada
TTITLE12=Xirú Pereira - Maragatos e Chimangos
TTITLE13=Luiz Carlos Borges e Mauro Ferreira - Florêncio Guerra
TTITLE14=Os Bertussi - A volta do Tropeiro
TTITLE15=Omair Trindade - Retorno bravo
EXTD=
EXTT0=
EXTT1=
EXTT2=
EXTT3=
EXTT4=
EXTT5=
EXTT6=
EXTT7=
EXTT8=
EXTT9=
EXTT10=
EXTT11=
EXTT12=
EXTT13=
EXTT14=
EXTT15=
PLAYORDER=
